<svg xmlns="http://www.w3.org/2000/svg" xmlns:xlink="http://www.w3.org/1999/xlink" width="500" zoomAndPan="magnify" viewBox="0 0 375 374.999991" height="500" preserveAspectRatio="xMidYMid meet" version="1.0"><defs><g/></defs><path stroke-linecap="butt" transform="matrix(6.478608, -3.778576, 3.778576, 6.478608, 82.897624, 138.526001)" fill="none" stroke-linejoin="miter" d="M 0.0000035332 0.000209273 L 15.999821 0.000130545 " stroke="#03989e" stroke-width="2" stroke-opacity="1" stroke-miterlimit="4"/><path stroke-linecap="butt" transform="matrix(6.48756, 3.763185, -3.763185, 6.48756, 188.440787, 78.07104)" fill="none" stroke-linejoin="miter" d="M 0.0000227346 -0.000125275 L 16.000001 -0.000115353 " stroke="#03989e" stroke-width="2" stroke-opacity="1" stroke-miterlimit="4"/><path stroke-linecap="butt" transform="matrix(6.48756, 3.763185, -3.763185, 6.48756, 82.758237, 261.525775)" fill="none" stroke-linejoin="miter" d="M 0.0000560418 0.000209328 L 16.000034 0.00021925 " stroke="#03989e" stroke-width="2" stroke-opacity="1" stroke-miterlimit="4"/><path stroke-linecap="butt" transform="matrix(0.000000000000000459, 7.5, -7.5, 0.000000000000000459, 83.827981, 139.903892)" fill="none" stroke-linejoin="miter" d="M -0.000206382 -0.0000191473 L 15.999795 -0.0000191473 " stroke="#03989e" stroke-width="2" stroke-opacity="1" stroke-miterlimit="4"/><path stroke-linecap="butt" transform="matrix(0.000000000000000459, 7.5, -7.5, 0.000000000000000459, 293.182543, 140.145665)" fill="none" stroke-linejoin="miter" d="M -0.000151193 -0.00014012 L 15.99985 -0.00014012 " stroke="#03989e" stroke-width="2" stroke-opacity="1" stroke-miterlimit="4"/><path stroke-linecap="butt" transform="matrix(6.478608, -3.778576, 3.778576, 6.478608, 190.455182, 321.738963)" fill="none" stroke-linejoin="miter" d="M 0.000258822 0.000045744 L 16.000076 -0.0000329838 " stroke="#03989e" stroke-width="2" stroke-opacity="1" stroke-miterlimit="4"/><g fill="#03989e" fill-opacity="1"><g transform="translate(140.076075, 240.403878)"><g><path d="M 84.324219 -81.191406 L 72.839844 -81.191406 L 72.839844 -45.929688 L 23.894531 -45.929688 L 23.894531 -81.191406 L 12.410156 -81.191406 L 12.410156 0 L 23.894531 0 L 23.894531 -37.230469 L 72.839844 -37.230469 L 72.839844 0 L 84.324219 0 Z M 84.324219 -81.191406 "/></g></g></g></svg>